<?xml version="1.0" encoding="utf-8"?>
<!-- Generator: Adobe Illustrator 28.2.0, SVG Export Plug-In . SVG Version: 6.00 Build 0)  -->
<svg version="1.1" id="Capa_1" xmlns="http://www.w3.org/2000/svg" xmlns:xlink="http://www.w3.org/1999/xlink" x="0px" y="0px"
	 viewBox="0 0 1065.9 280.9" style="enable-background:new 0 0 1065.9 280.9;" xml:space="preserve">
<style type="text/css">
	.st0{fill:#FFFFFF;}
</style>
<g>
	<polygon class="st0" points="473.8,223.2 311.9,63.7 315.7,63.7 477.7,223.2 	"/>
	<path class="st0" d="M359.2,73.4c-0.5,3.4-1.9,5.2-4.7,5.2c-3.7,0-4.9-3-4.9-7.9c0-4.4,1.3-7.8,5-7.8c3,0,4.2,1.8,4.6,4.9l-2.4,0.2
		c-0.3-1.9-1-2.9-2.1-2.9c-1.6,0-2.4,1.6-2.4,5.5c0,4.2,0.7,5.7,2.4,5.7c1.2,0,2-1.1,2.3-3.2L359.2,73.4L359.2,73.4z"/>
	<polygon class="st0" points="362,78.4 362,63.1 369.9,63.1 369.9,65.4 364.6,65.4 364.6,69.4 368.6,69.4 368.6,71.6 364.6,71.6 
		364.6,76.1 370.2,76.1 370.2,78.4 	"/>
	<polygon class="st0" points="380.2,78.4 375.3,67.9 375.2,67.9 375.2,78.4 372.9,78.4 372.9,63.1 375.9,63.1 380.1,72.4 
		380.2,72.4 380.2,63.1 382.5,63.1 382.5,78.4 	"/>
	<polygon class="st0" points="388.3,78.4 388.3,65.4 385.1,65.4 385.1,63.1 394.1,63.1 394.1,65.4 390.9,65.4 390.9,78.4 	"/>
	<path class="st0" d="M403.4,78.4l-2.2-6.3h-2v6.3h-2.6V63.1h4.1c3.3,0,4.9,1.3,4.9,4.2c0,1.9-0.8,3.1-2.2,3.7l2.7,7.3H403.4
		L403.4,78.4z M400.7,70c1.2,0,2.4-0.4,2.4-2.4c0-2.1-1.2-2.3-2.4-2.3h-1.4V70H400.7L400.7,70z"/>
	<path class="st0" d="M408.3,70.8c0-5.1,1.5-7.8,5.1-7.8c3.6,0,5.1,2.8,5.1,7.8s-1.6,7.8-5.1,7.8C409.8,78.6,408.3,75.8,408.3,70.8
		 M415.9,70.8c0-4-0.8-5.6-2.5-5.6c-1.7,0-2.5,1.7-2.5,5.6s0.9,5.7,2.5,5.7C415,76.4,415.9,74.9,415.9,70.8"/>
	<path class="st0" d="M377.4,99.6l-2.2-6.3h-2v6.3h-2.6V84.3h4.1c3.3,0,4.9,1.3,4.9,4.2c0,1.9-0.8,3.1-2.2,3.7l2.7,7.3H377.4
		L377.4,99.6z M374.6,91.1c1.2,0,2.4-0.4,2.4-2.4c0-2.1-1.2-2.3-2.4-2.3h-1.4v4.6H374.6L374.6,91.1z"/>
	<path class="st0" d="M382.2,91.9c0-5.1,1.5-7.8,5.1-7.8s5.1,2.8,5.1,7.8s-1.6,7.8-5.1,7.8S382.2,97,382.2,91.9 M389.9,91.9
		c0-4-0.8-5.6-2.5-5.6c-1.7,0-2.5,1.7-2.5,5.6s0.9,5.7,2.5,5.7C388.9,97.6,389.9,96.1,389.9,91.9"/>
	<path class="st0" d="M395.5,99.6V84.3h3.8c3.6,0,5.2,1.2,5.2,4c0,1.6-0.7,2.7-2,3.2v0c1.8,0.6,2.4,1.9,2.4,3.6
		c0,3.5-2.3,4.4-5.3,4.4L395.5,99.6L395.5,99.6z M399.4,90.6c1.3,0,2.5-0.5,2.5-2.1s-1.2-1.9-2.5-1.9H398v4.1H399.4z M399.7,97.3
		c1.8,0,2.6-0.6,2.6-2.3c0-1.7-0.9-2.3-2.5-2.3H398v4.6H399.7z"/>
	<polygon class="st0" points="407.9,99.6 407.9,84.3 415.8,84.3 415.8,86.6 410.5,86.6 410.5,90.6 414.5,90.6 414.5,92.8 
		410.5,92.8 410.5,97.3 416.1,97.3 416.1,99.6 	"/>
	<path class="st0" d="M425.6,99.6l-2.2-6.3h-2v6.3h-2.6V84.3h4.1c3.3,0,4.9,1.3,4.9,4.2c0,1.9-0.8,3.1-2.2,3.7l2.7,7.3H425.6
		L425.6,99.6z M422.9,91.1c1.2,0,2.4-0.4,2.4-2.4c0-2.1-1.2-2.3-2.4-2.3h-1.4v4.6H422.9z"/>
	<polygon class="st0" points="433.4,99.6 433.4,86.6 430.2,86.6 430.2,84.3 439.1,84.3 439.1,86.6 435.9,86.6 435.9,99.6 	"/>
	<path class="st0" d="M441,91.9c0-5.1,1.5-7.8,5.1-7.8c3.6,0,5.1,2.8,5.1,7.8s-1.6,7.8-5.1,7.8C442.6,99.8,441,97,441,91.9
		 M448.6,91.9c0-4-0.8-5.6-2.5-5.6c-1.7,0-2.5,1.7-2.5,5.6s0.9,5.7,2.5,5.7C447.7,97.6,448.6,96.1,448.6,91.9"/>
	<path class="st0" d="M398.1,120.8v-1.2h0c-0.8,1.1-1.8,1.4-3.1,1.4c-3,0-4.5-2.2-4.5-7.9c0-4.5,1.4-7.8,5.1-7.8c3,0,4.2,2,4.6,4.9
		l-2.4,0.2c-0.3-1.8-1-2.8-2.2-2.8c-1.6,0-2.5,1.6-2.5,5.5c0,4,0.6,5.7,2.5,5.7c1.5,0,2.2-1.2,2.2-2.8c0-0.2,0-0.5,0-0.8h-2.3v-2
		h4.6v7.6L398.1,120.8L398.1,120.8z"/>
	<path class="st0" d="M410.6,120.8l-0.8-3.9h-3.7l-0.8,3.9h-2.6l3.5-15.3h3.4l3.6,15.3H410.6L410.6,120.8z M406.5,114.6h2.8
		l-1.4-6.7h-0.1L406.5,114.6z"/>
	<path class="st0" d="M422.6,120.8l-2.2-6.3h-2v6.3h-2.6v-15.3h4.1c3.3,0,4.9,1.3,4.9,4.2c0,1.9-0.8,3.1-2.2,3.7l2.7,7.3H422.6
		L422.6,120.8z M419.9,112.3c1.2,0,2.4-0.4,2.4-2.4c0-2.2-1.2-2.3-2.4-2.3h-1.4v4.6H419.9z"/>
	<polygon class="st0" points="427.6,120.8 427.6,118.5 433.5,107.8 428.1,107.8 428.1,105.5 436.5,105.5 436.5,107.7 430.6,118.5 
		436.6,118.5 436.6,120.8 	"/>
	<path class="st0" d="M446.7,120.8l-0.8-3.9h-3.7l-0.8,3.9h-2.6l3.5-15.3h3.4l3.6,15.3H446.7L446.7,120.8z M442.6,114.6h2.8
		l-1.4-6.7H444L442.6,114.6L442.6,114.6z"/>
	<path class="st0" d="M462.9,109.5c-0.3-1.3-0.9-2.1-2.1-2.1c-1.1,0-1.7,0.6-1.7,1.6c0,3.2,6.3,2.8,6.3,7.8c0,2.7-1.8,4.1-4.5,4.1
		c-2.8,0-4.1-1.3-4.6-4.1l2.4-0.4c0.3,1.5,0.9,2.3,2.3,2.3c1.2,0,2-0.6,2-1.8c0-3.4-6.3-3-6.3-7.9c0-2.4,1.6-3.9,4.1-3.9
		c2.6,0,3.9,1.5,4.3,3.8L462.9,109.5L462.9,109.5z"/>
	<path class="st0" d="M475.2,120.8l-0.8-3.9h-3.7l-0.8,3.9h-2.6l3.5-15.3h3.4l3.6,15.3H475.2L475.2,120.8z M471.1,114.6h2.8
		l-1.4-6.7h-0.1L471.1,114.6L471.1,114.6z"/>
	<path class="st0" d="M480.5,120.8v-15.3h3.6c4.3,0,6.2,2.1,6.2,7.5c0,5-1.7,7.8-6.3,7.8H480.5z M484.2,118.4c2.4,0,3.5-1.7,3.5-5.4
		s-1.1-5.2-3.4-5.2h-1.2v10.6H484.2L484.2,118.4z"/>
	<path class="st0" d="M499.8,120.8l-0.8-3.9h-3.7l-0.8,3.9h-2.6l3.5-15.3h3.4l3.6,15.3H499.8L499.8,120.8z M495.7,114.6h2.8
		l-1.4-6.7h-0.1L495.7,114.6z"/>
	<path class="st0" d="M411.7,141.9v-15.3h3c4.4,0,6.2,2.2,6.2,7.5c0,5.3-1.8,7.8-6.3,7.8L411.7,141.9L411.7,141.9z M414.7,140.2
		c2.9,0,4.2-1.8,4.2-6c0-4.2-1.3-5.8-4.1-5.8h-1.3v11.7L414.7,140.2L414.7,140.2z"/>
	<polygon class="st0" points="424.1,141.9 424.1,126.6 431.5,126.6 431.5,128.4 425.9,128.4 425.9,133.2 430,133.2 430,134.8 
		425.9,134.8 425.9,140.2 431.8,140.2 431.8,141.9 	"/>
	<path class="st0" d="M446.9,141.9l-1-4.3h-4.2l-1,4.3h-1.9l3.7-15.3h2.6l3.7,15.3H446.9L446.9,141.9z M442.1,135.9h3.5l-1.7-7.5h0
		L442.1,135.9z"/>
	<path class="st0" d="M458.5,141.9l-2.6-6.7h-2.4v6.7h-1.9v-15.3h3.6c3.3,0,4.8,1.3,4.8,4.1c0,2-0.9,3.3-2.4,3.9l2.9,7.4H458.5z
		 M455.4,133.5c1.3,0,2.8-0.5,2.8-2.7c0-2.2-1.3-2.6-2.9-2.6h-1.7v5.2H455.4z"/>
	<polygon class="st0" points="465.9,141.9 465.9,128.4 462.5,128.4 462.5,126.6 471.1,126.6 471.1,128.4 467.8,128.4 467.8,141.9 	
		"/>
	<polygon class="st0" points="473.9,141.9 473.9,126.6 481.3,126.6 481.3,128.4 475.8,128.4 475.8,133.2 479.9,133.2 479.9,134.8 
		475.8,134.8 475.8,140.2 481.6,140.2 481.6,141.9 	"/>
	<path class="st0" d="M439.2,163.1l-1-4.3h-4.2l-1,4.3h-1.9l3.7-15.3h2.6l3.7,15.3H439.2L439.2,163.1z M434.3,157h3.5l-1.7-7.5h0
		L434.3,157z"/>
	<path class="st0" d="M450.7,163.1l-2.6-6.7h-2.4v6.7h-1.9v-15.3h3.6c3.3,0,4.8,1.3,4.8,4.1c0,2-0.9,3.3-2.4,3.9l2.9,7.4H450.7z
		 M447.7,154.7c1.3,0,2.8-0.5,2.8-2.7c0-2.2-1.3-2.6-2.9-2.6h-1.7v5.2H447.7z"/>
	<path class="st0" d="M455.1,155.4c0-5.2,1.6-7.8,4.8-7.8c3.3,0,4.9,2.7,4.9,7.8c0,2.7-0.5,4.7-1.3,6c0.4,0.7,0.9,1.2,1.7,1.2v1.9
		c-1.4-0.1-2.2-0.7-2.9-1.9c-0.7,0.4-1.4,0.6-2.4,0.6C456.7,163.3,455.1,160.6,455.1,155.4 M461.5,161c-0.4-0.8-0.8-1.4-1.4-1.5
		v-1.8c1.1,0.1,1.8,0.8,2.3,1.8c0.3-1,0.5-2.3,0.5-4c0-4.2-1.1-6.1-3-6.1c-1.9,0-3,1.9-3,6.1c0,4.2,1.1,6.2,3,6.2
		C460.6,161.7,461.1,161.4,461.5,161"/>
	<path class="st0" d="M475,147.8h1.9v10.6c0,3.2-1.4,4.8-4.5,4.8c-3.1,0-4.4-1.7-4.4-4.8v-10.6h1.9v10.9c0,2.1,0.8,2.9,2.5,2.9
		c1.7,0,2.6-0.8,2.6-2.9L475,147.8L475,147.8z"/>
	<rect x="480.6" y="147.8" class="st0" width="1.9" height="15.3"/>
	<polygon class="st0" points="488.7,163.1 488.7,149.5 485.3,149.5 485.3,147.8 493.9,147.8 493.9,149.5 490.5,149.5 490.5,163.1 	
		"/>
	<polygon class="st0" points="496.7,163.1 496.7,147.8 504.1,147.8 504.1,149.5 498.5,149.5 498.5,154.3 502.6,154.3 502.6,156 
		498.5,156 498.5,161.4 504.4,161.4 504.4,163.1 	"/>
	<path class="st0" d="M515.6,158.2c-0.5,3.4-1.9,5.1-4.5,5.1c-3.4,0-4.7-2.8-4.7-7.9c0-4.7,1.4-7.8,4.7-7.8c2.6,0,3.9,1.7,4.3,4.8
		l-1.7,0.2c-0.4-2.2-1.2-3.3-2.6-3.3c-1.9,0-2.8,2-2.8,6c0,4.3,0.8,6.2,2.8,6.2c1.5,0,2.4-1.2,2.7-3.6L515.6,158.2z"/>
	<polygon class="st0" points="521,163.1 521,149.5 517.6,149.5 517.6,147.8 526.2,147.8 526.2,149.5 522.8,149.5 522.8,163.1 	"/>
	<path class="st0" d="M536,147.8h1.9v10.6c0,3.2-1.4,4.8-4.5,4.8s-4.4-1.7-4.4-4.8v-10.6h1.9v10.9c0,2.1,0.8,2.9,2.5,2.9
		c1.7,0,2.6-0.8,2.6-2.9L536,147.8L536,147.8z"/>
	<path class="st0" d="M548.4,163.1l-2.6-6.7h-2.4v6.7h-1.9v-15.3h3.6c3.3,0,4.8,1.3,4.8,4.1c0,2-0.9,3.3-2.4,3.9l2.9,7.4H548.4z
		 M545.3,154.7c1.3,0,2.8-0.5,2.8-2.7c0-2.2-1.3-2.6-2.9-2.6h-1.7v5.2H545.3z"/>
	<path class="st0" d="M560.9,163.1l-1-4.3h-4.2l-1,4.3h-1.9l3.7-15.3h2.6l3.7,15.3H560.9z M556.1,157h3.4l-1.7-7.5h0L556.1,157
		L556.1,157z"/>
	<polygon class="st0" points="455.1,184.3 455.1,177.9 451.3,169 453.3,169 456,175.8 456.1,175.8 458.9,169 460.9,169 457,177.9 
		457,184.3 	"/>
	<path class="st0" d="M468.7,184.3V169h3c4.4,0,6.2,2.2,6.2,7.5c0,5.3-1.8,7.8-6.3,7.8H468.7z M471.7,182.5c2.9,0,4.2-1.8,4.2-6
		c0-4.2-1.3-5.7-4.1-5.7h-1.3v11.8L471.7,182.5L471.7,182.5z"/>
	<rect x="481.1" y="169" class="st0" width="1.9" height="15.3"/>
	<path class="st0" d="M492.4,172.9c-0.4-1.6-1-2.5-2.4-2.5c-1.3,0-2.1,0.7-2.1,2c0,3.5,6.4,3.1,6.4,8c0,2.6-1.6,4-4.2,4
		c-2.6,0-3.8-1.3-4.3-4l1.7-0.3c0.4,1.9,1,2.7,2.6,2.7c1.4,0,2.3-0.8,2.3-2.2c0-3.7-6.3-3.2-6.3-8.1c0-2.3,1.5-3.7,3.8-3.7
		c2.5,0,3.7,1.4,4,3.8L492.4,172.9L492.4,172.9z"/>
	<polygon class="st0" points="497.4,184.3 497.4,169 504.8,169 504.8,170.7 499.2,170.7 499.2,175.5 503.3,175.5 503.3,177.2 
		499.2,177.2 499.2,182.5 505.1,182.5 505.1,184.3 	"/>
	<path class="st0" d="M515.1,184.3l-5.4-12.2h0v12.2h-1.7V169h2.5l4.6,10.5h0V169h1.7v15.3H515.1L515.1,184.3z M515.8,165.4
		c-0.1,1.3-0.7,2.2-1.9,2.2c-1.1,0-1.8-0.8-2.7-0.8c-0.5,0-0.6,0.4-0.7,0.9h-1.1c0.2-1.3,0.7-2.2,1.9-2.2c1.1,0,1.8,0.9,2.7,0.9
		c0.4,0,0.6-0.4,0.7-0.9L515.8,165.4L515.8,165.4z"/>
	<path class="st0" d="M520.1,176.6c0-5.2,1.6-7.8,4.8-7.8c3.3,0,4.9,2.7,4.9,7.8s-1.6,7.9-4.9,7.9
		C521.7,184.5,520.1,181.7,520.1,176.6 M528,176.6c0-4.2-1.1-6.1-3-6.1s-3,1.9-3,6.1s1.1,6.2,3,6.2C526.9,182.8,528,180.8,528,176.6
		"/>
	<path class="st0" d="M58.3,149c-1.3,0-2.1-0.7-2.1-1.9v-12.4c0-1.2,0.8-1.9,2.1-1.9h9.4v2.7h-7.9v4h6.9v2.6h-6.9v4.3h7.9v2.7
		L58.3,149L58.3,149z"/>
	<path class="st0" d="M79.1,139.8c2.7,0.6,4.2,1.9,4.2,4.5c0,3.3-2.6,4.9-5.7,4.9c-1.9,0-3.4-0.3-5.3-0.8l-1.4-0.5l0.6-3l1.4,0.5
		c1.5,0.5,3.1,1,4.6,1c1.2,0,2.4-0.6,2.4-1.9c0-1-0.6-1.5-1.8-1.8l-2.8-0.6c-2.7-0.6-4.2-1.9-4.2-4.5c0-3.3,2.5-4.9,5.7-4.9
		c1.9,0,3.4,0.3,5.2,0.9l1.4,0.4l-0.6,3l-1.4-0.5c-1.5-0.5-3-1-4.6-1c-1.3,0-2.3,0.6-2.3,1.9c0,1,0.5,1.5,1.8,1.8L79.1,139.8
		L79.1,139.8z"/>
	<path class="st0" d="M94.1,132.6c1.5,0,2.9,0.3,4.5,0.8l1.3,0.4l-0.5,2.9l-1.3-0.4c-1.4-0.4-2.5-0.7-3.6-0.7
		c-2.7,0-4.3,1.7-4.3,5.3c0,3.6,1.6,5.2,4.3,5.2c1.1,0,2.3-0.2,3.6-0.6l1.3-0.4l0.5,2.9l-1.3,0.4c-1.5,0.5-3,0.8-4.5,0.8
		c-4.5,0-7.6-2.6-7.6-8.3C86.5,135.2,89.7,132.6,94.1,132.6"/>
	<path class="st0" d="M112.9,132.7h3.6V143c0,3.9-2.4,6.2-6.8,6.2s-6.7-2.3-6.7-6.2v-10.3h3.6v10.4c0,2.1,1.1,3.1,3.2,3.1
		s3.2-1.1,3.2-3.1V132.7z"/>
	<path class="st0" d="M122.4,149c-1.3,0-2.1-0.7-2.1-1.9v-12.4c0-1.2,0.8-1.9,2.1-1.9h9.4v2.7h-7.9v4h6.9v2.6h-6.9v4.3h7.9v2.7
		L122.4,149L122.4,149z"/>
	<path class="st0" d="M137.5,149c-1.3,0-2.1-0.7-2.1-1.9v-14.4h3.6V146h7.3v2.9H137.5z"/>
	<path class="st0" d="M160.3,149l-1-3h-6l-1,3h-3.6l5.2-14.8c0.4-1.1,1.2-1.7,2.5-1.7s2.1,0.6,2.5,1.6l5,14.8H160.3L160.3,149z
		 M156.4,136.1l-2.4,7.2h4.7L156.4,136.1z"/>
	<path class="st0" d="M180,149h-4.1c-1.3,0-2.1-0.7-2.1-1.9v-12.4c0-1.2,0.8-1.9,2.1-1.9h4.2c4.7,0,7.6,3,7.6,8.2
		C187.7,146,184.6,149,180,149 M179.8,135.4h-2.4v10.8h2.6c2.7,0,4.2-1.9,4.2-5.3C184.2,137.4,182.5,135.4,179.8,135.4"/>
	<path class="st0" d="M193.3,149c-1.3,0-2.1-0.7-2.1-1.9v-12.4c0-1.2,0.8-1.9,2.1-1.9h9.4v2.7h-7.9v4h6.9v2.6h-6.9v4.3h7.9v2.7
		L193.3,149L193.3,149z"/>
	<path class="st0" d="M66.8,172.2l-1-3h-6.1l-1,3h-3.6l5.2-14.8c0.4-1.1,1.2-1.7,2.5-1.7c1.3,0,2.1,0.6,2.5,1.6l5,14.8H66.8
		L66.8,172.2z M62.8,159.4l-2.4,7.2h4.7L62.8,159.4z"/>
	<path class="st0" d="M82.9,172.2l-2.5-6h-3.6v6h-3.6v-14.4c0-1.1,0.8-1.9,2-1.9h5.6c3.1,0,5,1.7,5,4.7c0,1.3-0.6,2.4-1.3,3.4
		l-1,1.2l3.1,7H82.9z M80.3,158.6h-3.5v5.1H81l0.7-0.9c0.4-0.6,0.8-1.2,0.8-2C82.5,159.5,81.9,158.6,80.3,158.6"/>
	<polygon class="st0" points="96.9,158.7 96.9,172.2 93.3,172.2 93.3,158.7 88.6,158.7 88.6,156 101.6,156 101.6,158.7 	"/>
	<path class="st0" d="M106.9,172.2c-1.3,0-2.1-0.7-2.1-1.9v-12.4c0-1.2,0.8-1.9,2.1-1.9h9.4v2.7h-7.9v4h6.9v2.6h-6.9v4.3h7.9v2.7
		L106.9,172.2L106.9,172.2z"/>
	<polygon class="st0" points="135.2,165.5 135.2,172.2 131.6,172.2 131.6,165.5 125.7,156 129.6,156 133.5,162.4 137.1,156 141,156 
			"/>
	<path class="st0" d="M157,172.2h-4.1c-1.3,0-2.1-0.7-2.1-1.9v-12.4c0-1.2,0.8-1.9,2.1-1.9h4.2c4.7,0,7.6,3,7.6,8.2
		C164.7,169.3,161.6,172.2,157,172.2 M156.8,158.7h-2.5v10.8h2.6c2.7,0,4.2-1.9,4.2-5.3C161.1,160.7,159.5,158.7,156.8,158.7"/>
	<rect x="168.2" y="156" class="st0" width="3.6" height="16.3"/>
	<path class="st0" d="M183.6,163.1c2.7,0.6,4.2,1.9,4.2,4.5c0,3.3-2.6,4.9-5.7,4.9c-1.9,0-3.4-0.3-5.3-0.8l-1.4-0.5l0.6-3l1.4,0.5
		c1.5,0.5,3.2,1,4.7,1c1.2,0,2.4-0.6,2.4-1.9c0-1-0.5-1.5-1.8-1.8l-2.8-0.6c-2.7-0.6-4.2-1.9-4.2-4.5c0-3.3,2.5-4.9,5.7-4.9
		c1.9,0,3.4,0.3,5.2,0.9l1.4,0.4l-0.6,3l-1.4-0.5c-1.5-0.5-3-1-4.6-1c-1.3,0-2.3,0.6-2.3,1.9c0,1,0.5,1.5,1.8,1.8L183.6,163.1
		L183.6,163.1z"/>
	<path class="st0" d="M193.4,172.2c-1.3,0-2.1-0.7-2.1-1.9v-12.4c0-1.2,0.8-1.9,2.1-1.9h9.4v2.7h-7.9v4h6.9v2.6h-6.9v4.3h7.9v2.7
		L193.4,172.2L193.4,172.2z"/>
	<path class="st0" d="M209.5,172.2h-3.1v-14.2c0-1.5,0.9-2.2,2.5-2.2c1.3,0,2,0.7,2.5,1.5l5.7,10.1V156h3.1v14.2
		c0,1.4-0.9,2.2-2.5,2.2c-1.3,0-2-0.7-2.5-1.5l-5.8-10.1V172.2L209.5,172.2z M213.5,154.5l-0.8-0.6c-0.3-0.2-0.5-0.3-0.9-0.3
		c-0.5,0-1,0.3-1.4,1.4l-1.6-1c0.7-1.9,2-2.6,3.1-2.6c0.7,0,1.2,0.2,1.7,0.6l0.8,0.6c0.3,0.2,0.5,0.3,0.9,0.3c0.5,0,1-0.3,1.4-1.4
		l1.6,1c-0.7,1.9-1.9,2.6-3.1,2.6C214.6,155.1,214,154.9,213.5,154.5"/>
	<path class="st0" d="M231.6,172.4c-4.7,0-7.8-3-7.8-8.3c0-5.3,3.2-8.3,7.9-8.3c4.7,0,7.8,3,7.8,8.3
		C239.6,169.4,236.4,172.4,231.6,172.4 M231.6,158.5c-2.7,0-4.2,2-4.2,5.6c0,3.6,1.6,5.7,4.3,5.7c2.7,0,4.2-2,4.2-5.7
		C236,160.5,234.3,158.5,231.6,158.5"/>
	<path class="st0" d="M66.1,179.3h3.6v10.3c0,3.9-2.4,6.2-6.8,6.2s-6.7-2.3-6.7-6.2v-10.3h3.6v10.4c0,2.1,1.1,3.1,3.2,3.1
		c2.1,0,3.2-1.1,3.2-3.1V179.3z"/>
	<path class="st0" d="M76.6,195.5h-3.1v-14.2c0-1.5,0.9-2.2,2.5-2.2c1.3,0,2,0.7,2.5,1.5l5.7,10v-11.4h3.1v14.2
		c0,1.4-0.9,2.2-2.5,2.2c-1.3,0-2-0.7-2.5-1.5l-5.7-10.1L76.6,195.5L76.6,195.5z"/>
	<rect x="91.3" y="179.3" class="st0" width="3.6" height="16.3"/>
	<path class="st0" d="M107.5,194.1c-0.4,1-1.2,1.5-2.4,1.5s-2-0.5-2.4-1.5l-5-14.8h3.7l3.8,12.5l3.9-12.5h3.6L107.5,194.1
		L107.5,194.1z"/>
	<path class="st0" d="M117.1,195.5c-1.3,0-2.1-0.7-2.1-1.9v-12.4c0-1.2,0.8-1.9,2.1-1.9h9.4v2.7h-7.9v4h6.9v2.6h-6.9v4.3h7.9v2.7
		L117.1,195.5L117.1,195.5z"/>
	<path class="st0" d="M139.8,195.5l-2.5-6h-3.6v6h-3.6v-14.4c0-1.1,0.8-1.9,2-1.9h5.6c3.1,0,5,1.7,5,4.7c0,1.3-0.6,2.4-1.3,3.4
		l-1,1.2l3.1,7H139.8 M137.2,181.8h-3.5v5.1h4.2l0.7-0.9c0.4-0.6,0.8-1.2,0.8-2C139.3,182.7,138.7,181.8,137.2,181.8"/>
	<path class="st0" d="M154.4,186.3c2.7,0.6,4.2,1.9,4.2,4.5c0,3.3-2.6,4.9-5.7,4.9c-1.9,0-3.4-0.3-5.3-0.8l-1.4-0.5l0.6-3l1.4,0.5
		c1.5,0.5,3.2,1,4.7,1c1.2,0,2.4-0.6,2.4-1.9c0-1-0.5-1.5-1.8-1.8l-2.8-0.6c-2.7-0.6-4.2-1.9-4.2-4.5c0-3.3,2.5-4.9,5.7-4.9
		c1.9,0,3.4,0.3,5.2,0.9l1.4,0.4l-0.6,3l-1.4-0.5c-1.5-0.5-3-1-4.6-1c-1.3,0-2.3,0.6-2.3,1.9c0,1,0.5,1.5,1.8,1.8L154.4,186.3
		L154.4,186.3z"/>
	<rect x="162.2" y="179.3" class="st0" width="3.6" height="16.3"/>
	<path class="st0" d="M175.5,195.5h-4.1c-1.3,0-2.1-0.7-2.1-1.9v-12.4c0-1.2,0.8-1.9,2.1-1.9h4.2c4.7,0,7.6,3,7.6,8.2
		C183.2,192.6,180.1,195.5,175.5,195.5 M175.3,182h-2.5v10.8h2.6c2.7,0,4.2-1.9,4.2-5.3C179.7,184,178,182,175.3,182"/>
	<path class="st0" d="M196,195.5l-1-3h-6l-1,3h-3.6l5.2-14.8c0.4-1.1,1.2-1.7,2.5-1.7s2.1,0.6,2.5,1.6l5,14.8H196L196,195.5z
		 M192,182.7l-2.4,7.2h4.7L192,182.7z"/>
	<path class="st0" d="M208.7,195.5h-4.1c-1.3,0-2.1-0.7-2.1-1.9v-12.4c0-1.2,0.8-1.9,2.1-1.9h4.2c4.7,0,7.6,3,7.6,8.2
		C216.4,192.6,213.3,195.5,208.7,195.5 M208.5,182H206v10.8h2.6c2.7,0,4.2-1.9,4.2-5.3C212.8,184,211.2,182,208.5,182"/>
	<path class="st0" d="M62.4,218.8h-4.1c-1.3,0-2.1-0.7-2.1-1.9v-12.4c0-1.2,0.8-1.9,2.1-1.9h4.2c4.7,0,7.6,3,7.6,8.2
		C70.1,215.8,67.1,218.8,62.4,218.8 M62.2,205.3h-2.5v10.8h2.6c2.7,0,4.2-1.9,4.2-5.3C66.6,207.3,65,205.3,62.2,205.3"/>
	<path class="st0" d="M75.8,218.8c-1.3,0-2.1-0.7-2.1-1.9v-12.4c0-1.2,0.8-1.9,2.1-1.9h9.4v2.7h-7.9v4h6.9v2.6h-6.9v4.3h7.9v2.7
		L75.8,218.8L75.8,218.8z"/>
	<path class="st0" d="M112.8,218.8h-3.2V207l-3.5,10.7c-0.2,0.9-0.8,1.3-1.9,1.3s-1.7-0.4-2-1.3l-3.4-10.7v11.9h-3.1v-14.1
		c0-1.5,1.1-2.2,2.7-2.2c1.8,0,2.6,0.9,3,2.1l2.9,9.3l3.1-9.3c0.4-1.2,1.1-2.1,2.9-2.1c1.6,0,2.6,0.7,2.6,2.2V218.8z"/>
	<path class="st0" d="M124.2,219c-4.7,0-7.8-3-7.8-8.3c0-5.3,3.2-8.3,7.9-8.3c4.7,0,7.8,3,7.8,8.3C132.2,216,128.9,219,124.2,219
		 M124.2,205.1c-2.7,0-4.2,2-4.2,5.6c0,3.6,1.6,5.7,4.3,5.7s4.2-2,4.2-5.7C128.6,207.1,126.9,205.1,124.2,205.1"/>
	<path class="st0" d="M138.8,218.8h-3.1v-14.2c0-1.5,0.9-2.2,2.5-2.2c1.3,0,2,0.7,2.5,1.5l5.7,10v-11.4h3.1v14.2
		c0,1.4-0.9,2.2-2.5,2.2c-1.3,0-2-0.7-2.5-1.5l-5.7-10.1L138.8,218.8L138.8,218.8z"/>
	<polygon class="st0" points="161.2,205.3 161.2,218.8 157.6,218.8 157.6,205.3 152.9,205.3 152.9,202.5 165.8,202.5 165.8,205.3 	
		"/>
	<path class="st0" d="M171.2,218.8c-1.3,0-2.1-0.7-2.1-1.9v-12.4c0-1.2,0.8-1.9,2.1-1.9h9.4v2.7h-7.9v4h6.9v2.6h-6.9v4.3h7.9v2.7
		L171.2,218.8L171.2,218.8z"/>
	<path class="st0" d="M193.9,218.8l-2.5-6h-3.6v6h-3.6v-14.4c0-1.1,0.8-1.9,2-1.9h5.6c3.1,0,5.1,1.7,5.1,4.7c0,1.3-0.6,2.4-1.3,3.4
		l-1,1.2l3.1,7H193.9 M191.3,205.1h-3.5v5.1h4.2l0.7-0.9c0.4-0.6,0.8-1.2,0.8-2C193.4,206,192.8,205.1,191.3,205.1"/>
	<path class="st0" d="M210.3,218.8l-2.5-6h-3.6v6h-3.6v-14.4c0-1.1,0.8-1.9,2-1.9h5.6c3.1,0,5.1,1.7,5.1,4.7c0,1.3-0.6,2.4-1.3,3.4
		l-1,1.2l3.1,7H210.3 M207.7,205.1h-3.5v5.1h4.2l0.7-0.9c0.4-0.6,0.8-1.2,0.8-2C209.9,206,209.2,205.1,207.7,205.1"/>
	<path class="st0" d="M219.2,218.8c-1.3,0-2.1-0.7-2.1-1.9v-12.4c0-1.2,0.8-1.9,2.1-1.9h9.4v2.7h-7.9v4h6.9v2.6h-6.9v4.3h7.9v2.7
		L219.2,218.8L219.2,218.8z"/>
	<polygon class="st0" points="240.5,212.1 240.5,218.8 236.9,218.8 236.9,212.1 231,202.5 234.9,202.5 238.7,209 242.4,202.5 
		246.2,202.5 	"/>
	<path class="st0" d="M678.3,180.2h8.3v23.2c0,4.4-1.3,7.9-4,10.4c-2.6,2.5-6.5,3.7-11.6,3.7s-8.9-1.2-11.5-3.7
		c-2.6-2.5-3.9-5.9-3.9-10.4v-23.2h8.3v23.4c0,2.3,0.6,4.1,1.8,5.3c1.2,1.2,3,1.8,5.4,1.8s4.2-0.6,5.4-1.8c1.2-1.2,1.8-3,1.8-5.3
		V180.2z"/>
	<path class="st0" d="M725.4,198.9c0,3-0.4,5.6-1.3,7.9c-0.8,2.3-2,4.2-3.6,5.8c-1.5,1.6-3.4,2.8-5.5,3.6c-2.2,0.8-4.5,1.2-7.2,1.2
		h-9.5c-1.5,0-2.6-0.4-3.5-1.2c-0.8-0.8-1.2-1.8-1.2-3.2v-28.5c0-1.4,0.4-2.4,1.2-3.2c0.8-0.8,2-1.2,3.5-1.2h9.6
		c2.6,0,5.1,0.4,7.2,1.3c2.1,0.8,4,2.1,5.5,3.7c1.5,1.6,2.7,3.6,3.5,5.9C725,193.3,725.4,196,725.4,198.9 M717.3,198.9
		c0-3.9-0.9-6.9-2.6-9.1c-1.8-2.2-4.2-3.3-7.4-3.3h-5.6v24.7h5.9c3.1,0,5.5-1.1,7.2-3.1C716.5,205.9,717.4,202.9,717.3,198.9"/>
	<path class="st0" d="M737.2,217.5c-1.5,0-2.7-0.4-3.5-1.2c-0.8-0.8-1.2-1.8-1.2-3.2v-28.5c0-1.4,0.4-2.4,1.2-3.2
		c0.8-0.8,2-1.2,3.5-1.2h21.5v6.2h-18.1v9.2h15.8v5.9h-15.8v9.9h18.1v6.1L737.2,217.5L737.2,217.5z"/>
	<path class="st0" d="M804.7,217.5h-7.3v-27l-8,24.3c-0.5,2-2,2.9-4.3,2.9s-3.8-1-4.5-2.9l-7.8-24.3v27h-7v-32.2
		c0-1.7,0.6-3,1.7-3.9c1.1-0.8,2.6-1.3,4.4-1.3c1,0,1.9,0.1,2.7,0.4c0.7,0.2,1.4,0.6,1.9,1c0.5,0.4,1,0.9,1.3,1.5
		c0.3,0.6,0.6,1.2,0.9,1.9l6.7,21.3l7-21.3c0.4-1.4,1.1-2.5,2.1-3.5c0.9-0.9,2.5-1.4,4.5-1.4c1.8,0,3.3,0.4,4.3,1.3
		c1.1,0.8,1.6,2.1,1.6,3.9L804.7,217.5L804.7,217.5z"/>
	<rect x="822.6" y="176.3" class="st0" width="1.6" height="45.2"/>
	<path class="st0" d="M851.3,180.3h3.4v9.7c0,3.6-2.2,5.8-6.3,5.8s-6.3-2.2-6.3-5.8v-9.7h3.3v9.8c0,1.9,1,3,3,3s3-1,3-3V180.3z"/>
	<path class="st0" d="M861.2,195.5h-2.9v-13.3c0-1.4,0.9-2.1,2.4-2.1c1.2,0,1.9,0.6,2.4,1.4l5.3,9.4v-10.7h2.9v13.3
		c0,1.3-0.9,2.1-2.4,2.1c-1.2,0-1.9-0.6-2.3-1.4l-5.4-9.4V195.5z"/>
	<rect x="874.9" y="180.3" class="st0" width="3.4" height="15.2"/>
	<path class="st0" d="M890,194.2c-0.3,1-1.1,1.4-2.3,1.4c-1.2,0-1.9-0.5-2.2-1.4l-4.6-13.9h3.4l3.5,11.7l3.6-11.7h3.3L890,194.2z"/>
	<path class="st0" d="M899,195.5c-1.2,0-1.9-0.7-1.9-1.8v-11.6c0-1.1,0.7-1.8,1.9-1.8h8.8v2.5h-7.4v3.7h6.4v2.4h-6.4v4h7.4v2.5H899
		L899,195.5z"/>
	<path class="st0" d="M920.2,195.5l-2.4-5.6h-3.3v5.6h-3.3v-13.4c0-1.1,0.7-1.8,1.9-1.8h5.2c3,0,4.7,1.5,4.7,4.4
		c0,1.2-0.5,2.3-1.2,3.2l-0.9,1.1l2.9,6.5L920.2,195.5L920.2,195.5z M917.8,182.7h-3.3v4.8h3.9l0.6-0.8c0.4-0.6,0.8-1.2,0.8-1.9
		C919.8,183.6,919.2,182.8,917.8,182.7"/>
	<path class="st0" d="M933.8,187c2.6,0.6,4,1.7,4,4.2c0,3.1-2.4,4.6-5.3,4.6c-1.7,0-3.2-0.2-4.9-0.8l-1.3-0.4l0.5-2.8l1.3,0.5
		c1.4,0.5,3,0.9,4.4,0.9c1.2,0,2.2-0.5,2.2-1.8c0-0.9-0.5-1.4-1.7-1.7l-2.7-0.6c-2.5-0.6-4-1.8-4-4.2c0-3.1,2.4-4.6,5.3-4.6
		c1.7,0,3.1,0.3,4.9,0.8l1.3,0.4l-0.6,2.8l-1.3-0.5c-1.4-0.5-2.8-0.9-4.3-0.9c-1.2,0-2.2,0.5-2.2,1.8c0,0.9,0.5,1.4,1.7,1.7
		L933.8,187L933.8,187z"/>
	<rect x="941.1" y="180.3" class="st0" width="3.4" height="15.2"/>
	<path class="st0" d="M953.6,195.5h-3.9c-1.2,0-1.9-0.7-1.9-1.8v-11.6c0-1.1,0.7-1.8,1.9-1.8h3.9c4.4,0,7.1,2.8,7.1,7.6
		C960.8,192.8,957.9,195.5,953.6,195.5 M953.4,182.9h-2.3V193h2.4c2.5,0,4-1.8,4-5S955.9,182.9,953.4,182.9"/>
	<path class="st0" d="M972.7,195.5l-0.9-2.8h-5.7l-0.9,2.8h-3.3l4.9-13.8c0.4-1,1.1-1.5,2.4-1.5c1.2,0,2,0.6,2.3,1.5l4.7,13.8H972.7
		z M969,183.5l-2.2,6.8h4.4L969,183.5L969,183.5z"/>
	<path class="st0" d="M984.6,195.5h-3.9c-1.2,0-1.9-0.7-1.9-1.8v-11.6c0-1.1,0.7-1.8,1.9-1.8h3.9c4.4,0,7.1,2.8,7.1,7.6
		C991.8,192.8,988.9,195.5,984.6,195.5 M984.4,182.9h-2.3V193h2.4c2.5,0,4-1.8,4-5S987,182.9,984.4,182.9"/>
	<path class="st0" d="M848,217.3h-3.9c-1.2,0-1.9-0.7-1.9-1.8v-11.6c0-1.1,0.7-1.8,1.9-1.8h3.9c4.4,0,7.1,2.8,7.1,7.6
		C855.2,214.5,852.3,217.3,848,217.3 M847.8,204.6h-2.3v10.1h2.4c2.5,0,4-1.8,4-5C851.8,206.5,850.3,204.7,847.8,204.6"/>
	<path class="st0" d="M860.4,217.3c-1.2,0-1.9-0.7-1.9-1.8v-11.6c0-1.1,0.7-1.8,1.9-1.8h8.8v2.5h-7.4v3.7h6.4v2.4h-6.4v4h7.4v2.5
		H860.4z"/>
	<path class="st0" d="M895,217.3h-3v-11.1l-3.3,10c-0.2,0.8-0.8,1.2-1.8,1.2c-1,0-1.6-0.4-1.8-1.2l-3.2-10v11.1h-2.9v-13.2
		c0-1.4,1-2.1,2.5-2.1c1.7,0,2.4,0.8,2.8,2l2.7,8.7l2.9-8.7c0.4-1.2,1-2,2.7-2c1.5,0,2.4,0.7,2.4,2.1L895,217.3L895,217.3z"/>
	<path class="st0" d="M905.7,217.5c-4.4,0-7.3-2.8-7.3-7.7s3-7.7,7.4-7.7c4.4,0,7.3,2.8,7.3,7.7
		C913.1,214.7,910.1,217.5,905.7,217.5 M905.7,204.5c-2.5,0-3.9,1.9-3.9,5.3c0,3.4,1.5,5.3,4,5.3c2.5,0,3.9-1.9,3.9-5.3
		C909.7,206.3,908.2,204.5,905.7,204.5"/>
	<path class="st0" d="M919.3,217.3h-2.9V204c0-1.4,0.9-2.1,2.4-2.1c1.2,0,1.9,0.6,2.4,1.4l5.3,9.4v-10.7h2.9v13.3
		c0,1.3-0.9,2.1-2.4,2.1c-1.2,0-1.9-0.6-2.3-1.4l-5.4-9.4V217.3L919.3,217.3z"/>
	<polygon class="st0" points="940.2,204.7 940.2,217.3 936.8,217.3 936.8,204.7 932.5,204.7 932.5,202.1 944.6,202.1 944.6,204.7 	
		"/>
	<path class="st0" d="M949.5,217.3c-1.2,0-1.9-0.7-1.9-1.8v-11.6c0-1.1,0.7-1.8,1.9-1.8h8.8v2.5h-7.4v3.7h6.4v2.4h-6.4v4h7.4v2.5
		H949.5z"/>
	<path class="st0" d="M970.7,217.3l-2.4-5.6H965v5.6h-3.3v-13.4c0-1.1,0.7-1.8,1.9-1.8h5.2c2.9,0,4.7,1.5,4.7,4.4
		c0,1.2-0.5,2.3-1.3,3.1l-0.9,1.2l2.9,6.5L970.7,217.3L970.7,217.3z M968.3,204.5H965v4.8h3.9l0.6-0.8c0.4-0.6,0.8-1.2,0.8-1.9
		C970.3,205.4,969.7,204.5,968.3,204.5"/>
	<path class="st0" d="M986.1,217.3l-2.4-5.6h-3.4v5.6h-3.3v-13.4c0-1.1,0.7-1.8,1.9-1.8h5.2c3,0,4.7,1.5,4.7,4.4
		c0,1.2-0.5,2.3-1.3,3.1l-0.9,1.2l2.9,6.5L986.1,217.3L986.1,217.3z M983.7,204.5h-3.3v4.8h3.9l0.6-0.8c0.4-0.6,0.8-1.2,0.8-1.9
		C985.7,205.4,985.1,204.5,983.7,204.5"/>
	<path class="st0" d="M994.4,217.3c-1.2,0-1.9-0.7-1.9-1.8v-11.6c0-1.1,0.7-1.8,1.9-1.8h8.8v2.5h-7.4v3.7h6.4v2.4h-6.4v4h7.4v2.5
		H994.4L994.4,217.3z"/>
	<polygon class="st0" points="1014.3,211 1014.3,217.3 1010.9,217.3 1010.9,211 1005.4,202.1 1009.1,202.1 1012.7,208.1 
		1016.1,202.1 1019.7,202.1 	"/>
</g>
</svg>
